<svg xmlns="http://www.w3.org/2000/svg" viewBox="0 0 120 120" role="img" aria-labelledby="title">
  <title id="title">Biscoito</title>
  <rect width="120" height="120" rx="60" fill="#cf562d"/>
  <path d="M0 86c22-16 39-22 60-22s38 6 60 22v34H0V86Z" fill="#f6efdc"/>
  <circle cx="60" cy="49" r="28" fill="#b97249"/>
  <path d="M35 39c9-19 27-27 45-17 10 6 14 14 11 22-18-7-36-5-56-5Z" fill="#202018"/>
  <circle cx="49" cy="54" r="3" fill="#202018"/>
  <circle cx="71" cy="54" r="3" fill="#202018"/>
  <path d="M50 68c8 7 18 7 26-1" fill="none" stroke="#202018" stroke-width="4" stroke-linecap="round"/>
  <circle cx="89" cy="24" r="11" fill="#dfaa31"/>
  <circle cx="84" cy="20" r="2" fill="#8f5b1f"/>
  <circle cx="92" cy="28" r="2" fill="#8f5b1f"/>
</svg>
