<svg xmlns="http://www.w3.org/2000/svg" viewBox="0 0 120 120" role="img" aria-labelledby="title">
  <title id="title">Magrao</title>
  <rect width="120" height="120" rx="60" fill="#f1ead9"/>
  <path d="M0 88c18-18 36-25 60-25s42 7 60 25v32H0V88Z" fill="#1b5a40"/>
  <circle cx="60" cy="50" r="27" fill="#c98255"/>
  <path d="M35 43c6-18 19-27 37-21 8 3 13 8 16 16-17-3-33 1-53 5Z" fill="#3a2419"/>
  <rect x="42" y="50" width="17" height="9" rx="4" fill="none" stroke="#202018" stroke-width="3"/>
  <rect x="62" y="50" width="17" height="9" rx="4" fill="none" stroke="#202018" stroke-width="3"/>
  <path d="M59 55h4" stroke="#202018" stroke-width="3"/>
  <path d="M50 70c7 3 13 3 20 0" fill="none" stroke="#202018" stroke-width="4" stroke-linecap="round"/>
</svg>
