<svg xmlns="http://www.w3.org/2000/svg" viewBox="0 0 120 120" role="img" aria-labelledby="title">
  <title id="title">Ze Trovao</title>
  <rect width="120" height="120" rx="60" fill="#1b5a40"/>
  <path d="M0 84c24-14 40-18 60-18s36 4 60 18v36H0V84Z" fill="#cf562d"/>
  <circle cx="60" cy="50" r="27" fill="#d99a68"/>
  <path d="M30 47c7-23 20-32 39-28 13 3 21 10 25 25-18-7-36 1-64 3Z" fill="#202018"/>
  <circle cx="50" cy="53" r="3" fill="#202018"/>
  <circle cx="70" cy="53" r="3" fill="#202018"/>
  <path d="M51 68c6 5 14 5 20 0" fill="none" stroke="#202018" stroke-width="4" stroke-linecap="round"/>
  <path d="M76 20l-10 16h14L62 61l6-21H54l12-20h10Z" fill="#dfaa31"/>
</svg>
